<mxfile host="Electron" modified="2024-11-23T09:22:38.126Z" agent="Mozilla/5.0 (Windows NT 10.0; Win64; x64) AppleWebKit/537.36 (KHTML, like Gecko) draw.io/24.0.4 Chrome/120.0.6099.109 Electron/28.1.0 Safari/537.36" etag="G0IJ5e9BSdA5FIOTmS2L" version="24.0.4" type="device">
  <diagram name="Page-1" id="4jaMT7CMa61C7JWCxjF7">
    <mxGraphModel dx="1562" dy="909" grid="1" gridSize="10" guides="1" tooltips="1" connect="1" arrows="1" fold="1" page="1" pageScale="1" pageWidth="827" pageHeight="1169" math="0" shadow="0">
      <root>
        <mxCell id="0" />
        <mxCell id="1" parent="0" />
        <mxCell id="UiiJ0x4a9UruKqCiNJn5-27" value="" style="verticalLabelPosition=bottom;verticalAlign=top;html=1;shape=mxgraph.basic.patternFillRect;fillStyle=diag;step=5;fillStrokeWidth=0.2;fillStrokeColor=#dddddd;fillColor=#FFF2CC;strokeColor=#B3B3B3;" parent="1" vertex="1">
          <mxGeometry x="19" y="190" width="790" height="410" as="geometry" />
        </mxCell>
        <mxCell id="UiiJ0x4a9UruKqCiNJn5-2" value="Process Execution" style="html=1;whiteSpace=wrap;verticalAlign=middle;fontStyle=1;fontSize=15;strokeColor=#E1D5E7;" parent="1" vertex="1">
          <mxGeometry x="39.25" y="130" width="750" height="40" as="geometry" />
        </mxCell>
        <mxCell id="UiiJ0x4a9UruKqCiNJn5-3" value="ATOM RunTime" style="html=1;dropTarget=0;whiteSpace=wrap;strokeColor=#808080;" parent="1" vertex="1">
          <mxGeometry x="19" y="70" width="790" height="50" as="geometry" />
        </mxCell>
        <mxCell id="UiiJ0x4a9UruKqCiNJn5-4" value="" style="shape=module;jettyWidth=8;jettyHeight=4;" parent="UiiJ0x4a9UruKqCiNJn5-3" vertex="1">
          <mxGeometry x="1" width="20" height="20" relative="1" as="geometry">
            <mxPoint x="-27" y="7" as="offset" />
          </mxGeometry>
        </mxCell>
        <mxCell id="UiiJ0x4a9UruKqCiNJn5-5" value="&lt;div&gt;&lt;b&gt;Execution Properties&lt;/b&gt;&lt;/div&gt;" style="html=1;whiteSpace=wrap;fillColor=none;" parent="1" vertex="1">
          <mxGeometry x="544.75" y="220" width="90" height="50" as="geometry" />
        </mxCell>
        <mxCell id="UiiJ0x4a9UruKqCiNJn5-6" value="&lt;div&gt;&lt;b&gt;Data Context&lt;/b&gt;&lt;/div&gt;&lt;div&gt;Documents&lt;/div&gt;" style="html=1;whiteSpace=wrap;verticalAlign=top;fontColor=#00994D;fillColor=none;" parent="1" vertex="1">
          <mxGeometry x="39" y="320" width="120" height="160" as="geometry" />
        </mxCell>
        <mxCell id="UiiJ0x4a9UruKqCiNJn5-7" value="&lt;div&gt;&lt;b&gt;DPP&lt;/b&gt;&lt;/div&gt;&lt;div&gt;[ PropertyName : Value ]&lt;br&gt;&lt;/div&gt;" style="html=1;whiteSpace=wrap;fillColor=none;" parent="1" vertex="1">
          <mxGeometry x="193.75" y="220" width="141" height="50" as="geometry" />
        </mxCell>
        <mxCell id="UiiJ0x4a9UruKqCiNJn5-8" value="&lt;div&gt;&lt;b&gt;Doc 1&lt;/b&gt;&lt;/div&gt;" style="html=1;whiteSpace=wrap;fontColor=#00994D;fillColor=none;" parent="1" vertex="1">
          <mxGeometry x="49" y="360" width="100" height="30" as="geometry" />
        </mxCell>
        <mxCell id="UiiJ0x4a9UruKqCiNJn5-9" value="&lt;div&gt;&lt;b&gt;Doc 2&lt;/b&gt;&lt;/div&gt;" style="html=1;whiteSpace=wrap;fontColor=#00994D;fillColor=none;" parent="1" vertex="1">
          <mxGeometry x="49" y="390" width="100" height="30" as="geometry" />
        </mxCell>
        <mxCell id="UiiJ0x4a9UruKqCiNJn5-10" value="&lt;div&gt;&lt;b&gt;Doc &lt;font&gt;n&lt;/font&gt;&lt;/b&gt;&lt;/div&gt;" style="html=1;whiteSpace=wrap;fontColor=#00994D;fillColor=none;" parent="1" vertex="1">
          <mxGeometry x="49" y="440" width="100" height="30" as="geometry" />
        </mxCell>
        <mxCell id="UiiJ0x4a9UruKqCiNJn5-11" value="&lt;div&gt;&lt;b&gt;Process Properties&lt;/b&gt;&lt;/div&gt;&lt;div&gt;PropertyID.PropertyKey : Value&lt;/div&gt;" style="html=1;whiteSpace=wrap;fillColor=none;" parent="1" vertex="1">
          <mxGeometry x="344.75" y="220" width="190" height="50" as="geometry" />
        </mxCell>
        <mxCell id="UiiJ0x4a9UruKqCiNJn5-13" value="&lt;div&gt;&lt;b&gt;Data Context&lt;/b&gt;&lt;/div&gt;&lt;div&gt;Documents&lt;/div&gt;" style="html=1;whiteSpace=wrap;verticalAlign=top;fontColor=#990099;fillColor=none;" parent="1" vertex="1">
          <mxGeometry x="669" y="320" width="120" height="160" as="geometry" />
        </mxCell>
        <mxCell id="UiiJ0x4a9UruKqCiNJn5-14" value="&lt;div&gt;&lt;b&gt;Doc 1&lt;/b&gt;&lt;/div&gt;" style="html=1;whiteSpace=wrap;fontColor=#990099;fillColor=none;" parent="1" vertex="1">
          <mxGeometry x="679" y="360" width="100" height="30" as="geometry" />
        </mxCell>
        <mxCell id="UiiJ0x4a9UruKqCiNJn5-15" value="&lt;div&gt;&lt;b&gt;Doc 2&lt;/b&gt;&lt;/div&gt;" style="html=1;whiteSpace=wrap;fontColor=#990099;fillColor=none;" parent="1" vertex="1">
          <mxGeometry x="679" y="390" width="100" height="30" as="geometry" />
        </mxCell>
        <mxCell id="UiiJ0x4a9UruKqCiNJn5-16" value="&lt;div&gt;&lt;b&gt;Doc &lt;font&gt;m&lt;/font&gt;&lt;/b&gt;&lt;/div&gt;" style="html=1;whiteSpace=wrap;fontColor=#990099;fillColor=none;" parent="1" vertex="1">
          <mxGeometry x="679" y="440" width="100" height="30" as="geometry" />
        </mxCell>
        <mxCell id="UiiJ0x4a9UruKqCiNJn5-19" value="&lt;pre style=&quot;font-size: 11px;&quot;&gt;&lt;h1&gt;&lt;font face=&quot;Helvetica&quot; style=&quot;font-size: 15px;&quot;&gt;Process Script&lt;/font&gt;&lt;/h1&gt;&lt;font style=&quot;font-size: 11px;&quot;&gt;for( int i = 0; i &amp;lt; dataContext.getDataCount(); i++ )&lt;br&gt;&lt;/font&gt;{&lt;br&gt;&amp;nbsp; &amp;nbsp; &lt;font color=&quot;#00994d&quot;&gt;InputStream is = dataContext.getStream(i)&lt;br&gt;&amp;nbsp; &amp;nbsp; Properties props = dataContext.getProperties(i)&lt;/font&gt;&lt;br&gt;&amp;nbsp; &amp;nbsp; &lt;font color=&quot;#990099&quot;&gt;dataContext.storeStream(is, props)&lt;/font&gt;&lt;br&gt;}&lt;/pre&gt;" style="shape=process;whiteSpace=wrap;html=1;backgroundOutline=1;fontStyle=1;fontColor=#333333;fontSize=15;align=left;size=0.02442159383033419;fillColor=#f5f5f5;strokeColor=#666666;" parent="1" vertex="1">
          <mxGeometry x="219.5" y="330" width="389.5" height="150" as="geometry" />
        </mxCell>
        <mxCell id="UiiJ0x4a9UruKqCiNJn5-20" value="" style="shape=flexArrow;endArrow=classic;html=1;rounded=0;fontColor=#009900;" parent="1" edge="1">
          <mxGeometry width="50" height="50" relative="1" as="geometry">
            <mxPoint x="169.5" y="419.31000000000006" as="sourcePoint" />
            <mxPoint x="219.5" y="419.31000000000006" as="targetPoint" />
          </mxGeometry>
        </mxCell>
        <mxCell id="UiiJ0x4a9UruKqCiNJn5-21" value="" style="shape=flexArrow;endArrow=classic;html=1;rounded=0;fontColor=#990099;" parent="1" edge="1">
          <mxGeometry width="50" height="50" relative="1" as="geometry">
            <mxPoint x="619" y="454.66" as="sourcePoint" />
            <mxPoint x="669" y="454.66" as="targetPoint" />
          </mxGeometry>
        </mxCell>
        <mxCell id="UiiJ0x4a9UruKqCiNJn5-22" value="" style="shape=flexArrow;endArrow=classic;startArrow=classic;html=1;rounded=0;exitX=0.54;exitY=-0.006;exitDx=0;exitDy=0;exitPerimeter=0;" parent="1" source="UiiJ0x4a9UruKqCiNJn5-19" edge="1">
          <mxGeometry width="100" height="100" relative="1" as="geometry">
            <mxPoint x="329" y="370" as="sourcePoint" />
            <mxPoint x="429" y="270" as="targetPoint" />
          </mxGeometry>
        </mxCell>
        <mxCell id="UiiJ0x4a9UruKqCiNJn5-24" value="&lt;div&gt;&lt;b&gt;Dyn Doc Prop&lt;/b&gt;&lt;/div&gt;&lt;div&gt;[ PropertyName : Value ]&lt;/div&gt;" style="html=1;whiteSpace=wrap;fontColor=#66CC00;strokeColor=#B3B3B3;fillColor=none;" parent="1" vertex="1">
          <mxGeometry x="59.5" y="530" width="139.5" height="50" as="geometry" />
        </mxCell>
        <mxCell id="UiiJ0x4a9UruKqCiNJn5-25" value="&lt;b&gt;Document&lt;/b&gt;" style="html=1;whiteSpace=wrap;verticalAlign=top;fontColor=#009900;fillColor=none;" parent="1" vertex="1">
          <mxGeometry x="49" y="500" width="150" height="80" as="geometry" />
        </mxCell>
        <mxCell id="UiiJ0x4a9UruKqCiNJn5-26" value="" style="shape=flexArrow;endArrow=classic;startArrow=classic;html=1;rounded=0;exitX=1.02;exitY=0.573;exitDx=0;exitDy=0;exitPerimeter=0;" parent="1" source="UiiJ0x4a9UruKqCiNJn5-25" edge="1">
          <mxGeometry width="100" height="100" relative="1" as="geometry">
            <mxPoint x="300" y="539" as="sourcePoint" />
            <mxPoint x="299" y="480" as="targetPoint" />
            <Array as="points">
              <mxPoint x="299" y="546" />
            </Array>
          </mxGeometry>
        </mxCell>
        <mxCell id="UiiJ0x4a9UruKqCiNJn5-29" value="ProcessScriptContext" style="html=1;whiteSpace=wrap;container=1;recursiveResize=0;collapsible=0;fillColor=#fff2cc;strokeColor=#d6b656;" parent="1" vertex="1">
          <mxGeometry x="19" y="610" width="790" height="50" as="geometry" />
        </mxCell>
        <mxCell id="UiiJ0x4a9UruKqCiNJn5-30" value="" style="triangle;html=1;whiteSpace=wrap;" parent="UiiJ0x4a9UruKqCiNJn5-29" vertex="1">
          <mxGeometry x="20" y="10" width="20" height="30" as="geometry" />
        </mxCell>
        <mxCell id="UiiJ0x4a9UruKqCiNJn5-32" value="&lt;span&gt;&lt;font style=&quot;font-size: 21px;&quot;&gt;Unit TEST&lt;/font&gt;&lt;/span&gt;" style="html=1;whiteSpace=wrap;verticalAlign=top;fillColor=#ffe6cc;strokeColor=#d79b00;fillStyle=diag;align=center;fontFamily=Helvetica;fontSize=12;fontStyle=1" parent="1" vertex="1">
          <mxGeometry x="18" y="740" width="790" height="310" as="geometry" />
        </mxCell>
        <mxCell id="UiiJ0x4a9UruKqCiNJn5-33" value="Run Script" style="shape=flexArrow;endArrow=classic;html=1;rounded=0;fontColor=#000000;align=left;" parent="1" edge="1">
          <mxGeometry x="-0.2" y="-20" width="50" height="50" relative="1" as="geometry">
            <mxPoint x="399" y="720" as="sourcePoint" />
            <mxPoint x="399" y="670" as="targetPoint" />
            <mxPoint as="offset" />
          </mxGeometry>
        </mxCell>
        <mxCell id="UiiJ0x4a9UruKqCiNJn5-34" value="" style="shape=flexArrow;endArrow=classic;html=1;rounded=0;fontColor=#009900;" parent="1" edge="1">
          <mxGeometry width="50" height="50" relative="1" as="geometry">
            <mxPoint x="699" y="670" as="sourcePoint" />
            <mxPoint x="699" y="720" as="targetPoint" />
          </mxGeometry>
        </mxCell>
        <mxCell id="UiiJ0x4a9UruKqCiNJn5-39" value="Test" style="edgeLabel;html=1;align=left;verticalAlign=middle;resizable=0;points=[];" parent="UiiJ0x4a9UruKqCiNJn5-34" vertex="1" connectable="0">
          <mxGeometry x="0.008" y="5" relative="1" as="geometry">
            <mxPoint x="15" as="offset" />
          </mxGeometry>
        </mxCell>
        <mxCell id="UiiJ0x4a9UruKqCiNJn5-35" value="Create Process Script Context&amp;nbsp;&lt;br&gt;and populate with test data." style="shape=flexArrow;endArrow=classic;html=1;rounded=0;fontColor=#7EA6E0;align=left;width=6.857142857142857;endSize=4.96;" parent="1" edge="1">
          <mxGeometry x="-0.2" y="-10" width="50" height="50" relative="1" as="geometry">
            <mxPoint x="69" y="720" as="sourcePoint" />
            <mxPoint x="69" y="670" as="targetPoint" />
            <mxPoint as="offset" />
          </mxGeometry>
        </mxCell>
        <mxCell id="UiiJ0x4a9UruKqCiNJn5-36" value="&lt;h1&gt;Test Expectations&lt;/h1&gt;&lt;div&gt;&lt;div style=&quot;background-color: rgb(254, 254, 255);&quot;&gt;&lt;pre style=&quot;font-family: Inconsolata, monospace;&quot;&gt;&lt;span style=&quot;color: rgb(0, 0, 255);&quot;&gt;private static void &lt;/span&gt;&lt;span style=&quot;color: rgb(48, 48, 48);&quot;&gt;_onAfterScript&lt;/span&gt;&lt;span style=&quot;color: rgb(57, 173, 181);&quot;&gt;(&lt;/span&gt;&lt;span style=&quot;color: rgb(43, 145, 175);&quot;&gt;ProcessScriptContext &lt;/span&gt;&lt;span style=&quot;color: rgb(233, 136, 76);&quot;&gt;context&lt;/span&gt;&lt;font color=&quot;#39adb5&quot;&gt;) &lt;br&gt;&lt;/font&gt;&lt;font color=&quot;#000030&quot;&gt;{&lt;br&gt;&lt;/font&gt;    &lt;span style=&quot;white-space: normal; color: rgb(97, 130, 184);&quot;&gt;println&lt;/span&gt;&lt;span style=&quot;white-space: normal; color: rgb(57, 173, 181);&quot;&gt;(&lt;/span&gt;&lt;span style=&quot;white-space: normal; color: rgb(84, 187, 0);&quot;&gt;&quot;&lt;/span&gt;&lt;span style=&quot;white-space: normal; color: rgb(145, 184, 89);&quot;&gt;\r\n&lt;/span&gt;&lt;span style=&quot;white-space: normal; color: rgb(84, 187, 0);&quot;&gt;--- Test Output ----------&quot;&lt;/span&gt;&lt;font color=&quot;#39adb5&quot;&gt;&lt;span style=&quot;white-space: normal;&quot;&gt;)&lt;br&gt;&lt;/span&gt;&lt;/font&gt;    &lt;span style=&quot;white-space: normal; color: rgb(0, 0, 255);&quot;&gt;int &lt;/span&gt;&lt;span style=&quot;white-space: normal; color: rgb(48, 48, 48);&quot;&gt;docCount &lt;/span&gt;&lt;span style=&quot;white-space: normal; color: rgb(57, 173, 181);&quot;&gt;= &lt;/span&gt;&lt;span style=&quot;white-space: normal; color: rgb(233, 136, 76);&quot;&gt;context&lt;/span&gt;&lt;span style=&quot;color: rgb(0, 0, 48); white-space: normal;&quot;&gt;.&lt;/span&gt;&lt;span style=&quot;white-space: normal;&quot;&gt;&lt;font color=&quot;#990099&quot;&gt;&lt;b&gt;outputDocuments&lt;/b&gt;&lt;/font&gt;&lt;/span&gt;&lt;span style=&quot;color: rgb(0, 0, 48); white-space: normal;&quot;&gt;.&lt;/span&gt;&lt;span style=&quot;white-space: normal; color: rgb(97, 130, 184);&quot;&gt;size&lt;/span&gt;&lt;font color=&quot;#39adb5&quot;&gt;&lt;span style=&quot;white-space: normal;&quot;&gt;()&lt;br&gt;&lt;/span&gt;&lt;/font&gt;    &lt;span style=&quot;white-space: normal; color: rgb(97, 130, 184);&quot;&gt;println&lt;/span&gt;&lt;span style=&quot;white-space: normal; color: rgb(57, 173, 181);&quot;&gt;(&lt;/span&gt;&lt;span style=&quot;white-space: normal; color: rgb(48, 48, 48);&quot;&gt;docCount &lt;/span&gt;&lt;span style=&quot;white-space: normal; color: rgb(57, 173, 181);&quot;&gt;+ &lt;/span&gt;&lt;span style=&quot;white-space: normal; color: rgb(84, 187, 0);&quot;&gt;&quot; Document(s) after script execution&quot;&lt;/span&gt;&lt;font color=&quot;#39adb5&quot;&gt;&lt;span style=&quot;white-space: normal;&quot;&gt;)&lt;br&gt;&lt;/span&gt;&lt;/font&gt;    &lt;span style=&quot;font-weight: bold; white-space: normal; color: rgb(0, 0, 255);&quot;&gt;assert &lt;/span&gt;&lt;span style=&quot;font-weight: bold; white-space: normal; color: rgb(233, 136, 76);&quot;&gt;context&lt;/span&gt;&lt;span style=&quot;font-weight: bold; color: rgb(0, 0, 48); white-space: normal;&quot;&gt;.&lt;/span&gt;&lt;span style=&quot;white-space: normal;&quot;&gt;&lt;font style=&quot;&quot; color=&quot;#00cc00&quot;&gt;&lt;b&gt;inputDocuments&lt;/b&gt;&lt;/font&gt;&lt;/span&gt;&lt;span style=&quot;font-weight: bold; color: rgb(0, 0, 48); white-space: normal;&quot;&gt;.&lt;/span&gt;&lt;span style=&quot;font-weight: bold; white-space: normal; color: rgb(97, 130, 184);&quot;&gt;size&lt;/span&gt;&lt;span style=&quot;font-weight: bold; white-space: normal; color: rgb(57, 173, 181);&quot;&gt;() == &lt;/span&gt;&lt;span style=&quot;white-space: normal; color: rgb(48, 48, 48);&quot;&gt;&lt;b&gt;docCount&lt;br&gt;&lt;/b&gt;&lt;br&gt;&lt;/span&gt;    &lt;span style=&quot;white-space: normal; color: rgb(0, 0, 255);&quot;&gt;for &lt;/span&gt;&lt;span style=&quot;white-space: normal; color: rgb(57, 173, 181);&quot;&gt;(&lt;/span&gt;&lt;span style=&quot;white-space: normal; color: rgb(43, 145, 175);&quot;&gt;Document &lt;/span&gt;&lt;span style=&quot;white-space: normal; color: rgb(233, 136, 76);&quot;&gt;doc &lt;/span&gt;&lt;span style=&quot;white-space: normal; color: rgb(0, 0, 255);&quot;&gt;in &lt;/span&gt;&lt;span style=&quot;white-space: normal; color: rgb(233, 136, 76);&quot;&gt;context&lt;/span&gt;&lt;span style=&quot;color: rgb(0, 0, 48); white-space: normal;&quot;&gt;.&lt;/span&gt;&lt;span style=&quot;white-space: normal; color: rgb(57, 173, 181);&quot;&gt;outputDocuments) &lt;/span&gt;&lt;span style=&quot;color: rgb(0, 0, 48); white-space: normal;&quot;&gt;{&lt;br&gt;&lt;/span&gt;       &lt;span style=&quot;white-space: normal; color: rgb(43, 145, 175);&quot;&gt;String &lt;/span&gt;&lt;span style=&quot;white-space: normal; color: rgb(48, 48, 48);&quot;&gt;textDoc &lt;/span&gt;&lt;span style=&quot;white-space: normal; color: rgb(57, 173, 181);&quot;&gt;= &lt;/span&gt;&lt;span style=&quot;white-space: normal; color: rgb(233, 136, 76);&quot;&gt;doc&lt;/span&gt;&lt;span style=&quot;color: rgb(0, 0, 48); white-space: normal;&quot;&gt;.&lt;/span&gt;&lt;span style=&quot;white-space: normal; color: rgb(97, 130, 184);&quot;&gt;toString&lt;/span&gt;&lt;font color=&quot;#39adb5&quot;&gt;&lt;span style=&quot;white-space: normal;&quot;&gt;()&lt;br&gt;&lt;/span&gt;&lt;/font&gt;       &lt;b&gt;&lt;span style=&quot;white-space: normal; color: rgb(0, 0, 255);&quot;&gt;assert &lt;/span&gt;&lt;span style=&quot;white-space: normal; color: rgb(48, 48, 48);&quot;&gt;textDoc &lt;/span&gt;&lt;span style=&quot;white-space: normal; color: rgb(57, 173, 181);&quot;&gt;!= &lt;/span&gt;&lt;span style=&quot;white-space: normal; color: rgb(84, 187, 0);&quot;&gt;&quot;&quot;&lt;/span&gt;&lt;span style=&quot;color: rgb(0, 0, 48); white-space: normal;&quot;&gt;, &lt;/span&gt;&lt;/b&gt;&lt;font color=&quot;#54bb00&quot;&gt;&lt;span style=&quot;white-space: normal;&quot;&gt;&lt;b&gt;&quot;Document is null&quot;&lt;/b&gt;&lt;br&gt;&lt;/span&gt;&lt;/font&gt;       &lt;font color=&quot;#70b8a0&quot;&gt;&lt;span style=&quot;white-space: normal;&quot;&gt;&lt;i&gt;//println(&quot;Doc:&quot; + textDoc)&lt;br&gt;&lt;/i&gt;&lt;/span&gt;&lt;/font&gt;    &lt;font color=&quot;#000030&quot;&gt;&lt;span style=&quot;white-space: normal;&quot;&gt;}&lt;br&gt;&lt;/span&gt;&lt;/font&gt;}&lt;/pre&gt;&lt;/div&gt;&lt;/div&gt;" style="html=1;whiteSpace=wrap;align=left;spacingLeft=4;" parent="1" vertex="1">
          <mxGeometry x="399" y="790" width="400" height="250" as="geometry" />
        </mxCell>
        <mxCell id="UiiJ0x4a9UruKqCiNJn5-37" value="&lt;h1&gt;Create Context&lt;/h1&gt;&lt;div&gt;&lt;div style=&quot;background-color: rgb(254, 254, 255);&quot;&gt;&lt;pre style=&quot;font-family: Inconsolata, monospace;&quot;&gt;&lt;div style=&quot;&quot;&gt;&lt;pre style=&quot;font-family: Inconsolata, monospace;&quot;&gt;&lt;font color=&quot;#009900&quot;&gt;&lt;b&gt;ProcessScriptContext &lt;/b&gt;&lt;/font&gt;&lt;span style=&quot;color: rgb(48, 48, 48);&quot;&gt;context &lt;/span&gt;&lt;span style=&quot;color: rgb(57, 173, 181);&quot;&gt;= &lt;/span&gt;&lt;span style=&quot;color: rgb(0, 0, 255);&quot;&gt;new &lt;/span&gt;&lt;span style=&quot;color: rgb(43, 145, 175);&quot;&gt;ProcessScriptContext&lt;/span&gt;&lt;span style=&quot;color: rgb(57, 173, 181);&quot;&gt;(&lt;br&gt;&lt;/span&gt;&lt;span style=&quot;color: rgb(57, 173, 181);&quot;&gt;       &lt;/span&gt;&lt;span style=&quot;color: rgb(192, 192, 192);&quot;&gt;inputDocuments&lt;/span&gt;&lt;font color=&quot;#000030&quot;&gt;: &lt;/font&gt;&lt;span style=&quot;color: rgb(57, 173, 181);&quot;&gt;[&lt;br&gt;&lt;/span&gt;&lt;span style=&quot;color: rgb(57, 173, 181);&quot;&gt;             &lt;/span&gt;&lt;span style=&quot;color: rgb(43, 145, 175);&quot;&gt;Document&lt;/span&gt;&lt;font color=&quot;#000030&quot;&gt;.&lt;/font&gt;&lt;span style=&quot;color: rgb(97, 130, 184);&quot;&gt;fromText&lt;/span&gt;&lt;span style=&quot;color: rgb(57, 173, 181);&quot;&gt;(&lt;/span&gt;&lt;span style=&quot;color: rgb(84, 187, 0);&quot;&gt;&#39;{ .. }&#39;&lt;/span&gt;&lt;span style=&quot;color: rgb(57, 173, 181);&quot;&gt;)&lt;/span&gt;&lt;font color=&quot;#000030&quot;&gt;,&lt;br&gt;             &lt;/font&gt;&lt;span style=&quot;color: rgb(43, 145, 175); white-space: normal;&quot;&gt;Document&lt;/span&gt;&lt;span style=&quot;color: rgb(0, 0, 48); white-space: normal;&quot;&gt;.&lt;/span&gt;&lt;span style=&quot;color: rgb(97, 130, 184); white-space: normal;&quot;&gt;fromText&lt;/span&gt;&lt;span style=&quot;color: rgb(57, 173, 181); white-space: normal;&quot;&gt;(&lt;/span&gt;&lt;span style=&quot;color: rgb(84, 187, 0); white-space: normal;&quot;&gt;&#39;{ .. }&#39;&lt;/span&gt;&lt;span style=&quot;color: rgb(57, 173, 181); white-space: normal;&quot;&gt;)&lt;/span&gt;&lt;span style=&quot;color: rgb(0, 0, 48); white-space: normal;&quot;&gt;,&lt;/span&gt;&lt;font color=&quot;#000030&quot;&gt;&lt;br&gt;             &lt;/font&gt;&lt;span style=&quot;color: rgb(43, 145, 175);&quot;&gt;Document&lt;/span&gt;&lt;font color=&quot;#000030&quot;&gt;.&lt;/font&gt;&lt;span style=&quot;color: rgb(97, 130, 184);&quot;&gt;fromText&lt;/span&gt;&lt;span style=&quot;color: rgb(57, 173, 181);&quot;&gt;(&lt;/span&gt;&lt;span style=&quot;color: rgb(84, 187, 0);&quot;&gt;&#39;&#39;&#39;&lt;br&gt;&lt;/span&gt;&lt;span style=&quot;color: rgb(84, 187, 0);&quot;&gt;             { &lt;br&gt;&lt;/span&gt;&lt;span style=&quot;color: rgb(84, 187, 0);&quot;&gt;                &quot;firstname&quot; : &quot;Walter Jr.&quot;, &lt;br&gt;&lt;/span&gt;&lt;span style=&quot;color: rgb(84, 187, 0);&quot;&gt;                &quot;lastname&quot; : &quot;Miller&quot; &lt;br&gt;&lt;/span&gt;&lt;span style=&quot;color: rgb(84, 187, 0);&quot;&gt;             }&lt;br&gt;&lt;/span&gt;&lt;span style=&quot;color: rgb(84, 187, 0);&quot;&gt;             &#39;&#39;&#39;&lt;/span&gt;&lt;span style=&quot;color: rgb(57, 173, 181);&quot;&gt;)&lt;/span&gt;&lt;font color=&quot;#000030&quot;&gt;, &lt;/font&gt;&lt;span style=&quot;color: rgb(112, 184, 160); font-style: italic;&quot;&gt;// Groovy multi-line text support&lt;br&gt;&lt;/span&gt;&lt;span style=&quot;color: rgb(112, 184, 160); font-style: italic;&quot;&gt;       &lt;/span&gt;&lt;span style=&quot;color: rgb(57, 173, 181);&quot;&gt;])&lt;/span&gt;&lt;/pre&gt;&lt;pre style=&quot;color: rgb(0, 0, 48); font-family: Inconsolata, monospace;&quot;&gt;&lt;span style=&quot;color:#39adb5;&quot;&gt;_testScript&lt;/span&gt;.&lt;span style=&quot;color:#6182b8;&quot;&gt;run&lt;/span&gt;&lt;span style=&quot;color:#39adb5;&quot;&gt;(&lt;/span&gt;&lt;span style=&quot;color:#303030;&quot;&gt;context&lt;/span&gt;&lt;span style=&quot;color:#39adb5;&quot;&gt;)&lt;/span&gt;&lt;/pre&gt;&lt;/div&gt;&lt;/pre&gt;&lt;/div&gt;&lt;/div&gt;" style="html=1;whiteSpace=wrap;align=left;spacingLeft=4;" parent="1" vertex="1">
          <mxGeometry x="29" y="790" width="361" height="250" as="geometry" />
        </mxCell>
        <mxCell id="UiiJ0x4a9UruKqCiNJn5-40" value="&lt;h1&gt;Boomi Process Script - Visualized&lt;/h1&gt;" style="rounded=0;whiteSpace=wrap;html=1;fillColor=none;strokeColor=none;align=left;fontColor=#3B4D69;" parent="1" vertex="1">
          <mxGeometry x="19" y="20" width="442" height="40" as="geometry" />
        </mxCell>
        <mxCell id="UiiJ0x4a9UruKqCiNJn5-41" value="&lt;p&gt;Markus Schmidt, 2024-11-22&lt;/p&gt;" style="rounded=0;whiteSpace=wrap;html=1;fillColor=none;strokeColor=none;align=right;fontColor=#3B4D69;" parent="1" vertex="1">
          <mxGeometry x="609" y="1070" width="189" height="40" as="geometry" />
        </mxCell>
        <mxCell id="6OhTR_v-WL_aSVQFJB-8-1" value="&lt;span style=&quot;font-size: 14px;&quot; data-offset-key=&quot;2ZSUFSL82hMT:0&quot;&gt;&lt;/span&gt;&lt;em style=&quot;font-size: 14px;&quot; data-slate-leaf=&quot;true&quot; data-offset-key=&quot;2ZSUFSL82hMT:1&quot; class=&quot;r-crgep1 r-36ujnk&quot; data-slate-fragment=&quot;JTdCJTIyb2JqZWN0JTIyJTNBJTIyZG9jdW1lbnQlMjIlMkMlMjJkYXRhJTIyJTNBJTdCJTdEJTJDJTIybm9kZXMlMjIlM0ElNUIlN0IlMjJvYmplY3QlMjIlM0ElMjJibG9jayUyMiUyQyUyMnR5cGUlMjIlM0ElMjJwYXJhZ3JhcGglMjIlMkMlMjJpc1ZvaWQlMjIlM0FmYWxzZSUyQyUyMmRhdGElMjIlM0ElN0IlN0QlMkMlMjJub2RlcyUyMiUzQSU1QiU3QiUyMm9iamVjdCUyMiUzQSUyMnRleHQlMjIlMkMlMjJsZWF2ZXMlMjIlM0ElNUIlN0IlMjJvYmplY3QlMjIlM0ElMjJsZWFmJTIyJTJDJTIydGV4dCUyMiUzQSUyMlNjcmlwdENvbnRleHQlMjAlMjIlMkMlMjJtYXJrcyUyMiUzQSU1QiU3QiUyMm9iamVjdCUyMiUzQSUyMm1hcmslMjIlMkMlMjJ0eXBlJTIyJTNBJTIyaXRhbGljJTIyJTJDJTIyZGF0YSUyMiUzQSU3QiU3RCU3RCU1RCU3RCU1RCUyQyUyMmtleSUyMiUzQSUyMnFZdEZuS0xDZUlzMCUyMiU3RCU1RCUyQyUyMmtleSUyMiUzQSUyMkZ0OEx3eTVCdUhXZCUyMiU3RCU1RCUyQyUyMmtleSUyMiUzQSUyMkR3R1VRTzFIMzlxMSUyMiU3RA==&quot;&gt;ScriptContext&amp;nbsp;&lt;/em&gt;" style="text;html=1;align=center;verticalAlign=middle;whiteSpace=wrap;rounded=0;fontStyle=1;fontSize=14;" vertex="1" parent="1">
          <mxGeometry x="44.5" y="220" width="109" height="30" as="geometry" />
        </mxCell>
      </root>
    </mxGraphModel>
  </diagram>
</mxfile>
